<svg width="16" height="17" viewBox="0 0 16 17" fill="none" xmlns="http://www.w3.org/2000/svg">
<path d="M1.4367 2.17839C1.39468 2.14687 1.34686 2.12394 1.29597 2.1109C1.24509 2.09787 1.19213 2.09498 1.14013 2.10241C1.08813 2.10984 1.0381 2.12744 0.992905 2.1542C0.947705 2.18096 0.90822 2.21637 0.876702 2.25839C0.845185 2.30041 0.822254 2.34823 0.809217 2.39912C0.79618 2.45 0.793294 2.50296 0.800723 2.55496C0.808151 2.60696 0.825749 2.65699 0.852513 2.70219C0.879276 2.74739 0.914679 2.78687 0.956702 2.81839L2.5583 4.01999C2.60033 4.05151 2.64814 4.07444 2.69903 4.08748C2.74992 4.10051 2.80287 4.1034 2.85487 4.09597C2.90687 4.08854 2.9569 4.07094 3.0021 4.04418C3.0473 4.01742 3.08679 3.98201 3.1183 3.93999C3.14982 3.89797 3.17275 3.85015 3.18579 3.79926C3.19882 3.74838 3.20171 3.69542 3.19428 3.64342C3.18685 3.59142 3.16926 3.54139 3.14249 3.49619C3.11573 3.45099 3.08033 3.41151 3.0383 3.37999L1.4367 2.17839ZM0.799902 6.09999C0.693816 6.09999 0.592074 6.14213 0.51706 6.21715C0.442045 6.29216 0.399902 6.3939 0.399902 6.49999C0.399902 6.60608 0.442045 6.70782 0.51706 6.78283C0.592074 6.85785 0.693816 6.89999 0.799902 6.89999H1.9999C2.10599 6.89999 2.20773 6.85785 2.28275 6.78283C2.35776 6.70782 2.3999 6.60608 2.3999 6.49999C2.3999 6.3939 2.35776 6.29216 2.28275 6.21715C2.20773 6.14213 2.10599 6.09999 1.9999 6.09999H0.799902ZM7.9983 2.09999C10.5175 2.09999 12.5935 3.96719 12.7855 6.38399L12.7967 6.56159L12.7999 6.74159L12.7991 9.61839L13.5391 11.396C13.5571 11.4392 13.5713 11.4839 13.5815 11.5296L13.5943 11.5984L13.6007 11.7032C13.5998 11.8797 13.5406 12.051 13.4322 12.1904C13.3238 12.3297 13.1724 12.4293 13.0015 12.4736L12.9087 12.4952L12.8007 12.5032H9.9999L9.9959 12.6312C9.96375 13.1387 9.73948 13.6149 9.36869 13.963C8.9979 14.311 8.50845 14.5048 7.9999 14.5048C7.49135 14.5048 7.00191 14.311 6.63112 13.963C6.26033 13.6149 6.03605 13.1387 6.0039 12.6312L5.9999 12.5032H3.1991C3.1287 12.5032 3.05937 12.4941 2.9911 12.476L2.8919 12.4416C2.73041 12.3735 2.59574 12.2543 2.50859 12.1022C2.42144 11.9502 2.38663 11.7737 2.4095 11.6L2.4263 11.4984L2.4607 11.396L3.1991 9.61999L3.1999 6.73439L3.2031 6.55519C3.3015 4.05999 5.4167 2.09999 7.9983 2.09999ZM9.1999 12.5032H6.7999L6.8055 12.616C6.83242 12.893 6.95479 13.152 7.15166 13.3488C7.34854 13.5455 7.60767 13.6677 7.8847 13.6944L7.9999 13.7C8.29821 13.7 8.58582 13.5889 8.80664 13.3883C9.02746 13.1877 9.16566 12.9121 9.1943 12.6152L9.1999 12.5032ZM7.9983 2.89999C5.8999 2.89999 4.1823 4.43839 4.0143 6.40799L4.0031 6.57759L3.9999 6.74159V9.69999L3.9695 9.85359L3.1991 11.7032L12.7655 11.7048L12.8015 11.7032L12.0303 9.85359L11.9999 9.69999V6.74959L11.9967 6.58639C11.9127 4.52719 10.1559 2.89999 7.9983 2.89999ZM15.1231 2.25839C15.0595 2.17352 14.9647 2.11741 14.8597 2.10241C14.7547 2.08741 14.648 2.11474 14.5631 2.17839L12.9615 3.37999C12.8766 3.44364 12.8205 3.5384 12.8055 3.64342C12.7905 3.74844 12.8179 3.85512 12.8815 3.93999C12.9452 4.02486 13.0399 4.08097 13.1449 4.09597C13.25 4.11097 13.3566 4.08364 13.4415 4.01999L15.0431 2.81839C15.128 2.75474 15.1841 2.65998 15.1991 2.55496C15.2141 2.44994 15.1868 2.34326 15.1231 2.25839ZM15.5999 6.49999C15.5999 6.3939 15.5578 6.29216 15.4827 6.21715C15.4077 6.14213 15.306 6.09999 15.1999 6.09999H13.9999C13.8938 6.09999 13.7921 6.14213 13.7171 6.21715C13.642 6.29216 13.5999 6.3939 13.5999 6.49999C13.5999 6.60608 13.642 6.70782 13.7171 6.78283C13.7921 6.85785 13.8938 6.89999 13.9999 6.89999H15.1999C15.306 6.89999 15.4077 6.85785 15.4827 6.78283C15.5578 6.70782 15.5999 6.60608 15.5999 6.49999Z" fill="#AB1C1C"/>
</svg>
