<svg width="36" height="37" viewBox="0 0 36 37" fill="none" xmlns="http://www.w3.org/2000/svg">
<path d="M31.5 5L19.5 17.75M14.169 17.1275C10.449 18.5555 7.4745 18.311 4.5 17.132C5.25 26.7965 9.756 30.512 15.7635 32C15.7635 32 20.289 28.799 20.9415 21.2105C21.012 20.3885 21.0465 19.979 20.877 19.5155C20.706 19.052 20.37 18.7205 19.6995 18.056C18.5955 16.964 18.045 16.418 17.3895 16.28C16.734 16.145 15.879 16.472 14.169 17.1275Z" stroke="#2691A3" stroke-width="1.5" stroke-linecap="round" stroke-linejoin="round"/>
<path d="M6.75 25.169C6.75 25.169 10.5 25.895 14.25 23M16.5 6.5V6.65M12.75 11.375C12.75 11.8723 12.5525 12.3492 12.2008 12.7008C11.8492 13.0525 11.3723 13.25 10.875 13.25C10.3777 13.25 9.90081 13.0525 9.54917 12.7008C9.19754 12.3492 9 11.8723 9 11.375C9 10.8777 9.19754 10.4008 9.54917 10.0492C9.90081 9.69754 10.3777 9.5 10.875 9.5C11.3723 9.5 11.8492 9.69754 12.2008 10.0492C12.5525 10.4008 12.75 10.8777 12.75 11.375Z" stroke="#2691A3" stroke-width="1.5" stroke-linecap="round" stroke-linejoin="round"/>
</svg>
