<svg width="36" height="37" viewBox="0 0 36 37" fill="none" xmlns="http://www.w3.org/2000/svg">
<g clip-path="url(#clip0_28_12)">
<path d="M9.92861 20.8849L2.16611 13.1404C-0.721387 10.2319 -0.721387 5.5459 2.16611 2.6569L15.1651 15.6199L9.92861 20.8849ZM19.7551 20.2549L32.5201 32.9899L29.8801 35.5999L17.1601 22.8799L4.40711 35.5999L1.79561 32.9899L19.6801 15.1084L19.3051 14.7004C18.9622 14.3589 18.6902 13.9531 18.5045 13.5063C18.3189 13.0594 18.2233 12.5803 18.2233 12.0964C18.2233 11.6125 18.3189 11.1334 18.5045 10.6865C18.6902 10.2397 18.9622 9.83385 19.3051 9.4924L27.3451 1.3999L29.0551 3.1024L23.0701 9.1384L24.8401 10.8799L30.8251 4.8619L32.5501 6.5659L26.5351 12.5659L28.2601 14.3494L34.3051 8.3239L36.0001 10.0654L27.9001 18.0949C26.4751 19.5349 24.1351 19.5349 22.7101 18.0949L22.3051 17.7199L19.7551 20.2549Z" fill="#2691A3"/>
</g>
<defs>
<clipPath id="clip0_28_12">
<rect width="36" height="36" fill="white" transform="translate(0 0.5)"/>
</clipPath>
</defs>
</svg>
