<svg width="33" height="33" viewBox="0 0 33 33" fill="none" xmlns="http://www.w3.org/2000/svg">
<path d="M9.16675 25.4666L10.5001 22.1666C10.7001 21.6555 11.0223 21.2497 11.4667 20.9493C11.9112 20.6488 12.4112 20.499 12.9667 20.4999H15.1667V15.1333C11.7667 15.0221 8.91653 14.5221 6.61608 13.6333C4.31564 12.7444 3.16586 11.6999 3.16675 10.4999C3.16675 9.21103 4.46675 8.11103 7.06675 7.19992C9.66675 6.28881 12.8112 5.83325 16.5001 5.83325C20.2112 5.83325 23.3614 6.28881 25.9507 7.19992C28.5401 8.11103 29.8343 9.21103 29.8334 10.4999C29.8334 11.6999 28.6832 12.7444 26.3827 13.6333C24.0823 14.5221 21.2325 15.0221 17.8334 15.1333V20.4999H20.0334C20.5667 20.4999 21.0614 20.6501 21.5174 20.9506C21.9734 21.251 22.301 21.6564 22.5001 22.1666L23.8334 25.4666C24.0112 25.8666 23.9721 26.2501 23.7161 26.6173C23.4601 26.9844 23.1103 27.1675 22.6667 27.1666C22.4223 27.1666 22.2001 27.0999 22.0001 26.9666C21.8001 26.8333 21.6445 26.6444 21.5334 26.3999L20.2334 23.1666H12.7667L11.4667 26.3999C11.3556 26.6444 11.2001 26.8333 11.0001 26.9666C10.8001 27.0999 10.5779 27.1666 10.3334 27.1666C9.88897 27.1666 9.53919 26.983 9.28408 26.6159C9.02897 26.2488 8.98986 25.8657 9.16675 25.4666ZM16.5001 12.4999C18.6556 12.4999 20.689 12.311 22.6001 11.9333C24.5112 11.5555 25.9112 11.0777 26.8001 10.4999C25.9112 9.92214 24.5112 9.44436 22.6001 9.06659C20.689 8.68881 18.6556 8.49992 16.5001 8.49992C14.3445 8.49992 12.3112 8.68881 10.4001 9.06659C8.48897 9.44436 7.08897 9.92214 6.20008 10.4999C7.08897 11.0777 8.48897 11.5555 10.4001 11.9333C12.3112 12.311 14.3445 12.4999 16.5001 12.4999Z" fill="#2691A3"/>
</svg>
