<svg width="59" height="59" viewBox="0 0 59 59" fill="none" xmlns="http://www.w3.org/2000/svg">
<path d="M5.2983 6.18905C5.14334 6.07283 4.967 5.98827 4.77936 5.9402C4.59173 5.89212 4.39645 5.88148 4.2047 5.90887C4.01295 5.93627 3.82847 6.00116 3.66179 6.09985C3.49512 6.19854 3.34952 6.32909 3.2333 6.48405C3.11708 6.63901 3.03252 6.81534 2.98445 7.00298C2.93637 7.19062 2.92573 7.38589 2.95312 7.57765C2.98052 7.7694 3.04541 7.95388 3.1441 8.12055C3.24279 8.28723 3.37334 8.43283 3.5283 8.54905L9.4342 12.9799C9.58916 13.0962 9.76549 13.1807 9.95313 13.2288C10.1408 13.2769 10.336 13.2875 10.5278 13.2601C10.7195 13.2327 10.904 13.1678 11.0707 13.0691C11.2374 12.9705 11.383 12.8399 11.4992 12.6849C11.6154 12.53 11.7 12.3537 11.7481 12.166C11.7961 11.9784 11.8068 11.7831 11.7794 11.5914C11.752 11.3996 11.6871 11.2151 11.5884 11.0484C11.4897 10.8818 11.3592 10.7362 11.2042 10.6199L5.2983 6.18905ZM2.9501 20.65C2.5589 20.65 2.18373 20.8054 1.90712 21.082C1.6305 21.3586 1.4751 21.7338 1.4751 22.125C1.4751 22.5161 1.6305 22.8913 1.90712 23.1679C2.18373 23.4445 2.5589 23.6 2.9501 23.6H7.3751C7.76629 23.6 8.14146 23.4445 8.41808 23.1679C8.6947 22.8913 8.8501 22.5161 8.8501 22.125C8.8501 21.7338 8.6947 21.3586 8.41808 21.082C8.14146 20.8054 7.76629 20.65 7.3751 20.65H2.9501ZM29.4942 5.89995C38.7837 5.89995 46.439 12.7853 47.147 21.6972L47.1883 22.3521L47.2001 23.0159L47.1971 33.624L49.9259 40.1789C49.9923 40.3383 50.0446 40.5031 50.0822 40.6716L50.1294 40.9253L50.153 41.3117C50.1498 41.9627 49.9313 42.5943 49.5317 43.1082C49.132 43.622 48.5736 43.9892 47.9435 44.1526L47.6013 44.2323L47.203 44.2617H36.8751L36.8603 44.7337C36.7418 46.6053 35.9148 48.3613 34.5475 49.6448C33.1802 50.9282 31.3754 51.6425 29.5001 51.6425C27.6248 51.6425 25.82 50.9282 24.4527 49.6448C23.0854 48.3613 22.2584 46.6053 22.1398 44.7337L22.1251 44.2617H11.7971C11.5375 44.2617 11.2819 44.2283 11.0301 44.1614L10.6643 44.0346C10.0689 43.7836 9.57226 43.3439 9.25089 42.7833C8.92952 42.2226 8.80115 41.5719 8.8855 40.9312L8.94745 40.5565L9.0743 40.1789L11.7971 33.6299L11.8001 22.9893L11.8119 22.3285C12.1747 13.1274 19.9745 5.89995 29.4942 5.89995ZM33.9251 44.2617H25.0751L25.0957 44.6777C25.195 45.6992 25.6462 46.6544 26.3722 47.3798C27.0982 48.1053 28.0537 48.5558 29.0753 48.6543L29.5001 48.6749C30.6001 48.6749 31.6607 48.2651 32.4749 47.5256C33.2892 46.786 33.7988 45.7697 33.9044 44.6747L33.9251 44.2617ZM29.4942 8.84995C21.7563 8.84995 15.4227 14.5228 14.8032 21.7857L14.7619 22.4111L14.7501 23.0159V33.9249L14.638 34.4914L11.7971 41.3117L47.0732 41.3176L47.206 41.3117L44.3622 34.4914L44.2501 33.9249V23.0453L44.2383 22.4436C43.9286 14.8502 37.4503 8.84995 29.4942 8.84995ZM55.7669 6.48405C55.5322 6.17109 55.1828 5.9642 54.7955 5.90887C54.4082 5.85355 54.0149 5.95433 53.7019 6.18905L47.796 10.6199C47.483 10.8547 47.2761 11.2041 47.2208 11.5914C47.1655 11.9786 47.2663 12.372 47.501 12.6849C47.7357 12.9979 48.0851 13.2048 48.4724 13.2601C48.8597 13.3154 49.253 13.2147 49.566 12.9799L55.4719 8.54905C55.7849 8.31433 55.9917 7.96491 56.0471 7.57765C56.1024 7.19038 56.0016 6.797 55.7669 6.48405ZM57.5251 22.125C57.5251 21.7338 57.3697 21.3586 57.0931 21.082C56.8165 20.8054 56.4413 20.65 56.0501 20.65H51.6251C51.2339 20.65 50.8587 20.8054 50.5821 21.082C50.3055 21.3586 50.1501 21.7338 50.1501 22.125C50.1501 22.5161 50.3055 22.8913 50.5821 23.1679C50.8587 23.4445 51.2339 23.6 51.6251 23.6H56.0501C56.4413 23.6 56.8165 23.4445 57.0931 23.1679C57.3697 22.8913 57.5251 22.5161 57.5251 22.125Z" fill="#AB1C1C" fill-opacity="0.25"/>
</svg>
