<svg width="51" height="51" viewBox="0 0 51 51" fill="none" xmlns="http://www.w3.org/2000/svg">
<rect width="51" height="51" rx="23" fill="#AB1C1C" fill-opacity="0.1"/>
<path d="M15.6553 16.0177C15.5923 15.9704 15.5205 15.936 15.4442 15.9165C15.3679 15.8969 15.2884 15.8926 15.2104 15.9037C15.1324 15.9149 15.0574 15.9413 14.9896 15.9814C14.9218 16.0216 14.8626 16.0747 14.8153 16.1377C14.768 16.2007 14.7336 16.2725 14.7141 16.3488C14.6945 16.4251 14.6902 16.5046 14.7013 16.5826C14.7125 16.6606 14.7389 16.7356 14.779 16.8034C14.8192 16.8712 14.8723 16.9304 14.9353 16.9777L17.3377 18.7801C17.4007 18.8274 17.4725 18.8618 17.5488 18.8813C17.6251 18.9009 17.7045 18.9052 17.7826 18.8941C17.8606 18.8829 17.9356 18.8565 18.0034 18.8164C18.0712 18.7762 18.1304 18.7231 18.1777 18.6601C18.225 18.5971 18.2594 18.5253 18.2789 18.449C18.2985 18.3727 18.3028 18.2933 18.2917 18.2153C18.2805 18.1373 18.2541 18.0622 18.214 17.9944C18.1738 17.9266 18.1207 17.8674 18.0577 17.8201L15.6553 16.0177ZM14.7001 21.9001C14.541 21.9001 14.3884 21.9633 14.2758 22.0758C14.1633 22.1884 14.1001 22.341 14.1001 22.5001C14.1001 22.6592 14.1633 22.8119 14.2758 22.9244C14.3884 23.0369 14.541 23.1001 14.7001 23.1001H16.5001C16.6592 23.1001 16.8118 23.0369 16.9244 22.9244C17.0369 22.8119 17.1001 22.6592 17.1001 22.5001C17.1001 22.341 17.0369 22.1884 16.9244 22.0758C16.8118 21.9633 16.6592 21.9001 16.5001 21.9001H14.7001ZM25.4977 15.9001C29.2765 15.9001 32.3905 18.7009 32.6785 22.3261L32.6953 22.5925L32.7001 22.8625L32.6989 27.1777L33.8089 29.8441C33.8359 29.9089 33.8572 29.976 33.8725 30.0445L33.8917 30.1477L33.9013 30.3049C33.9 30.5697 33.8111 30.8266 33.6485 31.0356C33.486 31.2447 33.2588 31.394 33.0025 31.4605L32.8633 31.4929L32.7013 31.5049H28.5001L28.4941 31.6969C28.4459 32.4582 28.1095 33.1725 27.5533 33.6946C26.9971 34.2167 26.2629 34.5073 25.5001 34.5073C24.7373 34.5073 24.0031 34.2167 23.4469 33.6946C22.8907 33.1725 22.5543 32.4582 22.5061 31.6969L22.5001 31.5049H18.2989C18.1933 31.5049 18.0893 31.4913 17.9869 31.4641L17.8381 31.4125C17.5959 31.3104 17.3939 31.1316 17.2631 30.9035C17.1324 30.6754 17.0802 30.4107 17.1145 30.1501L17.1397 29.9977L17.1913 29.8441L18.2989 27.1801L18.3001 22.8517L18.3049 22.5829C18.4525 18.8401 21.6253 15.9001 25.4977 15.9001ZM27.3001 31.5049H23.7001L23.7085 31.6741C23.7489 32.0896 23.9324 32.4782 24.2277 32.7733C24.523 33.0684 24.9117 33.2516 25.3273 33.2917L25.5001 33.3001C25.9476 33.3001 26.379 33.1334 26.7102 32.8326C27.0414 32.5317 27.2487 32.1183 27.2917 31.6729L27.3001 31.5049ZM25.4977 17.1001C22.3501 17.1001 19.7737 19.4077 19.5217 22.3621L19.5049 22.6165L19.5001 22.8625V27.3001L19.4545 27.5305L18.2989 30.3049L32.6485 30.3073L32.7025 30.3049L31.5457 27.5305L31.5001 27.3001V22.8745L31.4953 22.6297C31.3693 19.5409 28.7341 17.1001 25.4977 17.1001ZM36.1849 16.1377C36.0894 16.0104 35.9473 15.9262 35.7897 15.9037C35.6322 15.8812 35.4722 15.9222 35.3449 16.0177L32.9425 17.8201C32.8152 17.9156 32.731 18.0577 32.7085 18.2153C32.686 18.3728 32.727 18.5328 32.8225 18.6601C32.918 18.7874 33.0601 18.8716 33.2176 18.8941C33.3752 18.9166 33.5352 18.8756 33.6625 18.7801L36.0649 16.9777C36.1922 16.8822 36.2764 16.7401 36.2989 16.5826C36.3214 16.425 36.2804 16.265 36.1849 16.1377ZM36.9001 22.5001C36.9001 22.341 36.8369 22.1884 36.7244 22.0758C36.6118 21.9633 36.4592 21.9001 36.3001 21.9001H34.5001C34.341 21.9001 34.1884 21.9633 34.0758 22.0758C33.9633 22.1884 33.9001 22.341 33.9001 22.5001C33.9001 22.6592 33.9633 22.8119 34.0758 22.9244C34.1884 23.0369 34.341 23.1001 34.5001 23.1001H36.3001C36.4592 23.1001 36.6118 23.0369 36.7244 22.9244C36.8369 22.8119 36.9001 22.6592 36.9001 22.5001Z" fill="#AB1C1C"/>
</svg>
